<svg xmlns="http://www.w3.org/2000/svg" version="1.1" xmlns:xlink="http://www.w3.org/1999/xlink" xmlns:svgjs="http://svgjs.com/svgjs" width="3624" height="4018"><svg width="3624" height="4018" viewBox="0 0 3624 4018" fill="none" xmlns="http://www.w3.org/2000/svg">
<g clip-path="url(#clip0_2299_48818)">
<path opacity="0.988" fill-rule="evenodd" clip-rule="evenodd" d="M957.5 -0.5C979.5 -0.5 1001.5 -0.5 1023.5 -0.5C1040.28 3.41292 1057.28 6.91292 1074.5 10C1092.58 17.4718 1110.58 25.1385 1128.5 33C1142.5 41.6667 1156.5 50.3333 1170.5 59C1185.3 72.8041 1199.8 86.9707 1214 101.5C1224.33 116.5 1234.67 131.5 1245 146.5C1252.94 164.05 1260.61 181.717 1268 199.5C1271.67 216.5 1275.33 233.5 1279 250.5C1280.32 272.821 1280.65 295.154 1280 317.5C1276.46 335.527 1272.79 353.527 1269 371.5C1261.8 388.753 1254.8 406.087 1248 423.5C1238 438.833 1228 454.167 1218 469.5C1204.2 482.304 1190.7 495.471 1177.5 509C1163.5 519 1149.5 529 1135.5 539C1117.5 547 1099.5 555 1081.5 563C1057.06 568.954 1032.4 573.621 1007.5 577C990.123 577.615 972.79 577.281 955.5 576C894.182 652.148 832.515 727.981 770.5 803.5C748.488 772.81 725.988 742.477 703 712.5C685.497 692.656 665.331 676.156 642.5 663C633.661 657.746 624.661 652.746 615.5 648C585.512 636.33 555.845 624.164 526.5 611.5C589.69 532.811 652.69 453.978 715.5 375C713.613 371.341 712.113 367.508 711 363.5C699.748 309.836 701.082 256.503 715 203.5C722 186.167 729 168.833 736 151.5C745.916 136.67 755.583 121.67 765 106.5C778.196 93.6378 791.03 80.4711 803.5 67C818.5 56.6667 833.5 46.3333 848.5 36C866.048 27.7259 883.715 19.7259 901.5 12C920.309 7.87445 938.976 3.70778 957.5 -0.5Z" fill="#010001"></path>
<path fill-rule="evenodd" clip-rule="evenodd" d="M965.5 53.5C981.503 53.3334 997.503 53.5001 1013.5 54C1028.85 56.8702 1044.18 59.8702 1059.5 63C1074.25 69.1387 1088.92 75.472 1103.5 82C1115 89.5835 1126.66 96.9168 1138.5 104C1149.04 114.845 1159.88 125.345 1171 135.5C1179.67 148.167 1188.33 160.833 1197 173.5C1203 186.833 1209 200.167 1215 213.5C1218.59 228.772 1221.92 244.105 1225 259.5C1225.67 277.5 1225.67 295.5 1225 313.5C1222.58 326.913 1219.92 340.246 1217 353.5C1210.86 368.914 1204.53 384.247 1198 399.5C1190.67 410.833 1183.33 422.167 1176 433.5C1164.47 445.363 1152.64 456.863 1140.5 468C1129.17 476 1117.83 484 1106.5 492C1092.17 498.333 1077.83 504.667 1063.5 511C1048.17 514.333 1032.83 517.667 1017.5 521C1001.53 522.49 985.528 522.824 969.5 522C957.194 519.781 944.86 518.114 932.5 517C879.693 582.775 826.526 648.275 773 713.5C763.049 699.881 752.716 686.548 742 673.5C730.105 660.935 717.605 649.102 704.5 638C683.833 623.996 662.5 610.996 640.5 599C631.929 595.979 623.596 592.479 615.5 588.5C669.5 520.833 723.5 453.167 777.5 385.5C759.766 345.355 753.6 303.355 759 259.5C774.766 163.397 828.266 98.2303 919.5 64C934.971 60.5425 950.305 57.0425 965.5 53.5Z" fill="#0060A5"></path>
<path fill-rule="evenodd" clip-rule="evenodd" d="M974.501 161.5C1020.64 157.154 1059.14 172.154 1090 206.5C1094.33 212.167 1098.67 217.833 1103 223.5C1109.61 238.664 1114.61 254.331 1118 270.5C1122.1 325.455 1101.27 367.955 1055.5 398C1029.87 410.492 1002.87 415.492 974.501 413C967.477 412.146 960.477 411.146 953.501 410C882.328 378.933 854.495 325.099 870.001 248.5C879.512 225.644 893.345 205.81 911.501 189C917.168 184.667 922.834 180.333 928.501 176C943.412 169.416 958.745 164.583 974.501 161.5Z" fill="#000100"></path>
<path opacity="0.996" fill-rule="evenodd" clip-rule="evenodd" d="M1676.5 556.5C1676.41 557.496 1676.75 558.329 1677.5 559C1693.5 571.667 1709.5 584.333 1725.5 597C1751.5 591.624 1777.83 587.957 1804.5 586C1898.03 581.958 1983.03 606.625 2059.5 660C2120.97 706.419 2166.47 765.252 2196 836.5C2228.95 926.809 2229.95 1017.48 2199 1108.5C2184.38 1151.09 2163.05 1189.76 2135 1224.5C2047.29 1328.59 1935.12 1377.42 1798.5 1371C1695.29 1362.48 1608.46 1320.64 1538 1245.5C1476.43 1177.98 1441.76 1098.32 1434 1006.5C1433.67 990.833 1433.33 975.167 1433 959.5C1326.23 874.547 1219.06 790.213 1111.5 706.5C1089.35 688.531 1067.02 670.697 1044.5 653C1088.25 635.863 1131.91 618.529 1175.5 601C1253.81 558.004 1306.64 493.837 1334 408.5C1341.72 374.042 1349.89 339.709 1358.5 305.5C1464.52 389.19 1570.52 472.857 1676.5 556.5Z" fill="black"></path>
<path opacity="0.992" fill-rule="evenodd" clip-rule="evenodd" d="M3623.5 2145.5C3623.5 2185.5 3623.5 2225.5 3623.5 2265.5C3604.65 2693.43 3456.82 3069.1 3180 3392.5C2945.39 3659.86 2656.89 3844.7 2314.5 3947C2169.57 3988.54 2021.9 4012.04 1871.5 4017.5C1831.5 4017.5 1791.5 4017.5 1751.5 4017.5C1323.57 3998.65 947.905 3850.82 624.5 3574C357.138 3339.39 172.305 3050.89 70 2708.5C28.4642 2563.57 4.96418 2415.9 -0.5 2265.5C-0.5 2225.17 -0.5 2184.83 -0.5 2144.5C13.321 1798.72 115.988 1482.38 307.5 1195.5C308.365 1194.42 309.365 1194.25 310.5 1195C334.35 1208.34 359.683 1217.17 386.5 1221.5C191.792 1504.14 89.2925 1817.8 79 2162.5C72.7311 2542.62 177.398 2888.29 393 3199.5C616.534 3512.6 911.034 3730.77 1276.5 3854C1587.16 3953.18 1901.16 3965.18 2218.5 3890C2548.94 3807.1 2831.44 3643.6 3066 3399.5C3330.9 3117.97 3486.9 2783.97 3534 2397.5C3573.32 2020.73 3499.32 1668.06 3312 1339.5C3129.44 1029.47 2876.27 795.965 2552.5 639C2268.2 505.644 1969.53 452.478 1656.5 479.5C1626.87 456.54 1597.54 433.207 1568.5 409.5C1911.48 364.282 2240.81 412.116 2556.5 553C2862.42 694.241 3111.92 903.074 3305 1179.5C3503.16 1470.49 3609.33 1792.49 3623.5 2145.5Z" fill="#0060A5"></path>
<path fill-rule="evenodd" clip-rule="evenodd" d="M1391.5 401.5C1499.19 487.191 1607.19 572.524 1715.5 657.5C1827.19 622.841 1931.19 638.341 2027.5 704C2044.59 717.755 2061.09 732.255 2077 747.5C2097.33 771.166 2115.33 796.499 2131 823.5C2149.77 862.152 2161.44 902.818 2166 945.5C2172.63 1030.01 2151.96 1107.01 2104 1176.5C2024.56 1279.12 1919.72 1325.62 1789.5 1316C1685.39 1302.22 1603.55 1252.38 1544 1166.5C1498.64 1095.73 1480.31 1018.39 1489 934.5C1377.17 846 1265.33 757.5 1153.5 669C1167.72 663.056 1182.05 657.39 1196.5 652C1245.21 626.295 1287.04 592.128 1322 549.5C1335.12 531.039 1347.45 512.039 1359 492.5C1373.31 463.389 1384.15 433.056 1391.5 401.5Z" fill="#0060A5"></path>
<path fill-rule="evenodd" clip-rule="evenodd" d="M386.5 1221.5C401.513 1222.73 416.513 1223.23 431.5 1223C436.634 1227.13 441.468 1231.63 446 1236.5C450.377 1242.61 455.211 1248.28 460.5 1253.5C225.146 1593.55 127.646 1970.22 168 2383.5C182.124 2515.31 211.957 2643.31 257.5 2767.5C347.861 3013.85 487.861 3227.01 677.5 3407C940.89 3653.07 1252.56 3799.74 1612.5 3847C1979.38 3888.34 2322.72 3817.34 2642.5 3634C2915.41 3472.09 3126.57 3251.26 3276 2971.5C3310.52 2905.46 3340.36 2837.46 3365.5 2767.5C3438.02 2568.01 3470.86 2362.01 3464 2149.5C3449.95 1807.98 3342.62 1499.98 3142 1225.5C2935.61 949.533 2669.45 754.367 2343.5 640C2150.14 575.068 1951.48 545.901 1747.5 552.5C1716.98 528.407 1686.65 504.073 1656.5 479.5C1969.53 452.478 2268.2 505.644 2552.5 639C2876.27 795.965 3129.44 1029.47 3312 1339.5C3499.32 1668.06 3573.32 2020.73 3534 2397.5C3486.9 2783.97 3330.9 3117.97 3066 3399.5C2831.44 3643.6 2548.94 3807.1 2218.5 3890C1901.16 3965.18 1587.16 3953.18 1276.5 3854C911.034 3730.77 616.534 3512.6 393 3199.5C177.398 2888.29 72.7312 2542.62 79.0001 2162.5C89.2926 1817.8 191.792 1504.14 386.5 1221.5Z" fill="#1E120D"></path>
<path fill-rule="evenodd" clip-rule="evenodd" d="M1747.5 552.5C1951.48 545.901 2150.14 575.068 2343.5 640C2669.45 754.367 2935.61 949.533 3142 1225.5C3342.62 1499.98 3449.95 1807.98 3464 2149.5C3470.86 2362.01 3438.02 2568.01 3365.5 2767.5C2329.5 2767.5 1293.5 2767.5 257.5 2767.5C211.957 2643.31 182.124 2515.31 168 2383.5C127.646 1970.22 225.146 1593.55 460.5 1253.5C471.5 1238.17 482.5 1222.83 493.5 1207.5C495.371 1207.86 496.871 1208.86 498 1210.5C525.688 1242.69 553.188 1275.02 580.5 1307.5C543.69 1339.14 507.024 1370.97 470.5 1403C504.877 1443.57 539.377 1484.07 574 1524.5C603 1499.5 632 1474.5 661 1449.5C737.592 1511.21 814.092 1573.05 890.5 1635C892.055 1636.29 893.721 1636.96 895.5 1637C909 1625.5 922.5 1614 936 1602.5C956.667 1626.5 977.333 1650.5 998 1674.5C1031.33 1645.83 1064.67 1617.17 1098 1588.5C1097.96 1586.72 1097.29 1585.05 1096 1583.5C1076.26 1561.02 1056.76 1538.35 1037.5 1515.5C1048.06 1506.73 1058.39 1497.73 1068.5 1488.5C1020.5 1400.5 972.5 1312.5 924.5 1224.5C955.956 1197.55 987.289 1170.38 1018.5 1143C983.942 1102.7 949.275 1062.53 914.5 1022.5C876.186 1054.98 838.019 1087.65 800 1120.5C767.333 1082.5 734.667 1044.5 702 1006.5C701.333 1004.83 701.333 1003.17 702 1001.5C704.834 992.178 707.334 982.845 709.5 973.5C830.504 865.598 964.504 776.598 1111.5 706.5C1219.06 790.213 1326.23 874.547 1433 959.5C1433.33 975.167 1433.67 990.833 1434 1006.5C1441.76 1098.32 1476.43 1177.98 1538 1245.5C1608.46 1320.64 1695.29 1362.48 1798.5 1371C1935.12 1377.42 2047.29 1328.59 2135 1224.5C2163.05 1189.76 2184.38 1151.09 2199 1108.5C2229.95 1017.48 2228.95 926.809 2196 836.5C2166.47 765.252 2120.97 706.419 2059.5 660C1983.03 606.625 1898.03 581.958 1804.5 586C1777.83 587.957 1751.5 591.624 1725.5 597C1709.5 584.333 1693.5 571.667 1677.5 559C1676.75 558.329 1676.41 557.496 1676.5 556.5C1700.16 555.088 1723.83 553.755 1747.5 552.5Z" fill="#FEFEFE"></path>
<path opacity="0.996" fill-rule="evenodd" clip-rule="evenodd" d="M709.5 973.5C707.334 982.845 704.834 992.178 702 1001.5C701.333 1003.17 701.333 1004.83 702 1006.5C734.667 1044.5 767.333 1082.5 800 1120.5C838.019 1087.65 876.186 1054.98 914.5 1022.5C949.275 1062.53 983.942 1102.7 1018.5 1143C987.289 1170.38 955.956 1197.55 924.5 1224.5C972.5 1312.5 1020.5 1400.5 1068.5 1488.5C1058.39 1497.73 1048.06 1506.73 1037.5 1515.5C1056.76 1538.35 1076.26 1561.02 1096 1583.5C1097.29 1585.05 1097.96 1586.72 1098 1588.5C1064.67 1617.17 1031.33 1645.83 998 1674.5C977.333 1650.5 956.667 1626.5 936 1602.5C922.5 1614 909 1625.5 895.5 1637C893.721 1636.96 892.055 1636.29 890.5 1635C814.092 1573.05 737.592 1511.21 661 1449.5C632 1474.5 603 1499.5 574 1524.5C539.377 1484.07 504.877 1443.57 470.5 1403C507.024 1370.97 543.69 1339.14 580.5 1307.5C553.188 1275.02 525.688 1242.69 498 1210.5C496.871 1208.86 495.371 1207.86 493.5 1207.5C486.045 1198.21 478.378 1189.04 470.5 1180C459.317 1181.55 447.983 1181.88 436.5 1181C416.97 1178.05 397.97 1173.05 379.5 1166C342.058 1146.24 308.891 1120.74 280 1089.5C270.72 1075.89 261.054 1062.55 251 1049.5C244.471 1033.58 238.137 1017.58 232 1001.5C228.794 987.138 225.461 972.804 222 958.5C221.333 940.167 221.333 921.833 222 903.5C224.333 889.5 226.667 875.5 229 861.5C234.333 848.167 239.667 834.833 245 821.5C253.333 806.833 261.667 792.167 270 777.5C282.833 764.667 295.667 751.833 308.5 739C320.833 730 333.167 721 345.5 712C389.645 691.804 435.979 681.638 484.5 681.5C500.832 684.333 517.165 687.166 533.5 690C548.42 696.196 563.42 702.196 578.5 708C591.5 716.333 604.5 724.667 617.5 733C629.382 744.516 641.549 755.683 654 766.5C682.666 802.17 701.999 842.504 712 887.5C714.632 916.295 713.798 944.961 709.5 973.5Z" fill="black"></path>
<path fill-rule="evenodd" clip-rule="evenodd" d="M469.502 736.5C485.993 737.314 502.326 739.481 518.502 743C531.332 747.943 543.998 753.277 556.502 759C565.835 765 575.169 771 584.502 777C594.335 786.167 604.169 795.333 614.002 804.5C635.073 831.98 649.74 862.647 658.002 896.5C659.679 922.357 658.346 948.023 654.002 973.5C650.117 987.989 644.95 1001.99 638.502 1015.5C689.862 1076.21 741.695 1136.54 794.002 1196.5C832.021 1163.65 870.188 1130.98 908.502 1098.5C919.848 1111.18 930.848 1124.18 941.502 1137.5C914.674 1160.82 887.674 1183.99 860.502 1207C858.775 1208.39 857.441 1210.06 856.502 1212C903.78 1300.06 951.447 1387.89 999.502 1475.5C987.133 1487.2 974.467 1498.54 961.502 1509.5C981.481 1533.31 1001.65 1556.98 1022 1580.5C1022.67 1581.17 1022.67 1581.83 1022 1582.5C1016.5 1587.33 1011 1592.17 1005.5 1597C1002.56 1596.11 1000.06 1594.27 998.002 1591.5C979.335 1569.5 960.669 1547.5 942.002 1525.5C926.835 1538.67 911.669 1551.83 896.502 1565C894.958 1566.19 893.291 1566.52 891.502 1566C814.835 1504 738.169 1442 661.502 1380C660.502 1379.33 659.502 1379.33 658.502 1380C632.61 1403.06 606.277 1425.56 579.502 1447.5C568.315 1434.81 557.315 1421.98 546.502 1409C583.502 1377.17 620.502 1345.33 657.502 1313.5C601.689 1247.85 545.689 1182.35 489.502 1117C481.803 1118.9 474.136 1121.23 466.502 1124C444.459 1127.14 423.126 1124.47 402.502 1116C359.824 1093.99 325.324 1062.83 299.002 1022.5C294.335 1010.5 289.669 998.5 285.002 986.5C274.743 950.152 273.743 913.485 282.002 876.5C286.002 866.5 290.002 856.5 294.002 846.5C300.749 834.004 307.749 821.671 315.002 809.5C324.169 800.333 333.335 791.167 342.502 782C353.448 774.721 364.114 767.054 374.502 759C386.169 754.667 397.835 750.333 409.502 746C421.19 743.462 432.857 740.796 444.502 738C453.012 737.829 461.345 737.329 469.502 736.5Z" fill="#0060A5"></path>
<path fill-rule="evenodd" clip-rule="evenodd" d="M1812.5 800.5C1831.99 800.013 1851.32 801.513 1870.5 805C1880.42 808.863 1890.42 812.53 1900.5 816C1911.66 821.746 1922.66 827.746 1933.5 834C1941.35 841.352 1949.35 848.519 1957.5 855.5C1998.31 903.47 2012.48 958.47 2000 1020.5C1996.33 1030.83 1992.67 1041.17 1989 1051.5C1983.33 1061.83 1977.67 1072.17 1972 1082.5C1964.2 1091.96 1956.04 1101.13 1947.5 1110C1939.17 1116.33 1930.83 1122.67 1922.5 1129C1900.48 1141.01 1877.15 1149.34 1852.5 1154C1829.69 1156.4 1807.02 1155.4 1784.5 1151C1774.58 1147.14 1764.58 1143.47 1754.5 1140C1743.34 1134.25 1732.34 1128.25 1721.5 1122C1713.63 1114.46 1705.46 1107.29 1697 1100.5C1690.33 1091.83 1683.67 1083.17 1677 1074.5C1658.92 1042.51 1649.75 1008.17 1649.5 971.5C1650.85 959.482 1652.35 947.482 1654 935.5C1657.86 925.577 1661.53 915.577 1665 905.5C1670.67 894.833 1676.33 884.167 1682 873.5C1690.19 864.949 1698.02 856.115 1705.5 847C1714.17 840.333 1722.83 833.667 1731.5 827C1743.93 820.784 1756.6 815.118 1769.5 810C1778.55 807.489 1787.55 804.822 1796.5 802C1802.02 801.827 1807.35 801.327 1812.5 800.5Z" fill="#000100"></path>
<path fill-rule="evenodd" clip-rule="evenodd" d="M454.499 822.5C484.216 819.328 511.216 826.161 535.499 843C546.821 852.98 556.654 864.147 564.999 876.5C583.474 916.112 581.14 954.446 557.999 991.5C548.019 1002.82 536.852 1012.66 524.499 1021C483.783 1038.94 444.783 1035.94 407.499 1012C390.737 997.626 378.571 980.126 370.999 959.5C358.705 906.688 374.872 865.188 419.499 835C430.767 829.303 442.434 825.136 454.499 822.5Z" fill="#000100"></path>
<path fill-rule="evenodd" clip-rule="evenodd" d="M1192.5 1351.5C1201.39 1353.22 1210.05 1355.55 1218.5 1358.5C1211.75 1387.08 1205.42 1415.75 1199.5 1444.5C1191.4 1443.2 1183.4 1441.37 1175.5 1439C1174.57 1438.61 1173.91 1437.95 1173.5 1437C1180.35 1408.61 1186.68 1380.11 1192.5 1351.5Z" fill="#030403"></path>
<path fill-rule="evenodd" clip-rule="evenodd" d="M2432.5 1368.5C2451.85 1366.4 2469.85 1370.24 2486.5 1380C2497.28 1389.74 2503.12 1401.9 2504 1416.5C2504.67 1604.5 2504.67 1792.5 2504 1980.5C2500.04 2045.46 2465.54 2080.3 2400.5 2085C2310.17 2085.67 2219.83 2085.67 2129.5 2085C2065.55 2080.05 2031.38 2045.55 2027 1981.5C2026.33 1910.83 2026.33 1840.17 2027 1769.5C2032.08 1707.42 2065.58 1673.59 2127.5 1668C2177.17 1667.33 2226.83 1667.33 2276.5 1668C2304.6 1670.44 2320.77 1685.6 2325 1713.5C2327.48 1731.84 2324.48 1749.18 2316 1765.5C2306.1 1778.37 2292.94 1785.21 2276.5 1786C2247.13 1786.05 2217.8 1786.72 2188.5 1788C2164.42 1792.75 2150.59 1807.25 2147 1831.5C2146.33 1860.83 2146.33 1890.17 2147 1919.5C2151.54 1947.7 2168.04 1963.2 2196.5 1966C2241.83 1966.67 2287.17 1966.67 2332.5 1966C2363.48 1964.35 2380.98 1948.19 2385 1917.5C2385.33 1750.83 2385.67 1584.17 2386 1417.5C2388.74 1388.93 2404.24 1372.6 2432.5 1368.5Z" fill="#1E120D"></path>
<path fill-rule="evenodd" clip-rule="evenodd" d="M1153.5 1520.5C1162.12 1522.42 1170.78 1524.09 1179.5 1525.5C1170.78 1563.09 1162.45 1600.76 1154.5 1638.5C1145.78 1637.05 1137.12 1635.38 1128.5 1633.5C1136.67 1595.8 1145.01 1558.14 1153.5 1520.5Z" fill="#030403"></path>
<path fill-rule="evenodd" clip-rule="evenodd" d="M406.5 1590.5C435.974 1596.54 465.307 1603.2 494.5 1610.5C492.011 1618.79 489.678 1627.12 487.5 1635.5C459.226 1628.79 430.892 1622.29 402.5 1616C401.941 1615.28 401.608 1614.44 401.5 1613.5C403.705 1605.93 405.372 1598.26 406.5 1590.5Z" fill="#020302"></path>
<path fill-rule="evenodd" clip-rule="evenodd" d="M575.5 1629.5C613.256 1637.55 650.923 1646.05 688.5 1655C686.44 1662.41 684.606 1669.91 683 1677.5C682.481 1678.52 681.647 1679.18 680.5 1679.5C644.16 1671.33 607.827 1663.17 571.5 1655C570.903 1653.94 570.57 1652.77 570.5 1651.5C572.382 1644.2 574.049 1636.87 575.5 1629.5Z" fill="#020302"></path>
<path fill-rule="evenodd" clip-rule="evenodd" d="M1119.5 1667.5C1134.26 1666.32 1148.59 1668.15 1162.5 1673C1178.43 1681.34 1187.6 1694.51 1190 1712.5C1190.03 1783.52 1190.69 1854.52 1192 1925.5C1198.43 1950.59 1214.59 1964.09 1240.5 1966C1266.17 1966.67 1291.83 1966.67 1317.5 1966C1347.97 1963.86 1365.14 1947.7 1369 1917.5C1369.33 1851.17 1369.67 1784.83 1370 1718.5C1374.22 1683.45 1394.05 1666.45 1429.5 1667.5C1447.3 1666.48 1462.8 1671.82 1476 1683.5C1483.35 1692.54 1487.69 1702.88 1489 1714.5C1489.67 1800.83 1489.67 1887.17 1489 1973.5C1487.43 2042.06 1452.6 2079.23 1384.5 2085C1314.17 2085.67 1243.83 2085.67 1173.5 2085C1109.56 2080.06 1075.39 2045.56 1071 1981.5C1070.33 1893.83 1070.33 1806.17 1071 1718.5C1073.77 1688.57 1089.94 1671.57 1119.5 1667.5Z" fill="#1E120D"></path>
<path fill-rule="evenodd" clip-rule="evenodd" d="M1649.5 1667.5C1724.19 1667.03 1798.85 1667.53 1873.5 1669C1928.75 1675.99 1959.58 1707.16 1966 1762.5C1967.13 1809.98 1967.63 1857.48 1967.5 1905C1967.33 1948.17 1967.17 1991.33 1967 2034.5C1964.56 2063.94 1948.73 2080.77 1919.5 2085C1900.31 2087.98 1882.64 2084.31 1866.5 2074C1854.34 2062.55 1848.18 2048.39 1848 2031.5C1847.98 1963.47 1847.31 1895.47 1846 1827.5C1839.43 1801.93 1822.93 1788.43 1796.5 1787C1769.83 1786.33 1743.17 1786.33 1716.5 1787C1689.34 1789.83 1673.51 1804.66 1669 1831.5C1668.67 1900.5 1668.33 1969.5 1668 2038.5C1664.38 2066.45 1648.55 2081.95 1620.5 2085C1601.39 2087.71 1583.72 2084.05 1567.5 2074C1556.72 2064.27 1550.89 2052.11 1550 2037.5C1549.33 1946.5 1549.33 1855.5 1550 1764.5C1556.72 1704.95 1589.88 1672.62 1649.5 1667.5Z" fill="#1E120D"></path>
<path fill-rule="evenodd" clip-rule="evenodd" d="M2662.5 1667.5C2733.17 1667.33 2803.83 1667.5 2874.5 1668C2903.06 1670.56 2919.23 1686.06 2923 1714.5C2923.92 1744.19 2923.59 1773.86 2922 1803.5C2916.46 1829.7 2900.3 1843.87 2873.5 1846C2827.17 1846.33 2780.83 1846.67 2734.5 1847C2707 1849.14 2690.5 1863.64 2685 1890.5C2683.96 1903.94 2684.62 1917.27 2687 1930.5C2694.77 1952.83 2710.6 1964.66 2734.5 1966C2781.83 1966.33 2829.17 1966.67 2876.5 1967C2904.02 1970.52 2919.52 1986.02 2923 2013.5C2924.89 2030.61 2922.22 2046.95 2915 2062.5C2905.39 2076.06 2892.23 2083.56 2875.5 2085C2806.17 2085.67 2736.83 2085.67 2667.5 2085C2608.03 2081.52 2574.19 2050.36 2566 1991.5C2565.67 1985.5 2565.33 1979.5 2565 1973.5C2564.33 1906.17 2564.33 1838.83 2565 1771.5C2566.11 1741.46 2576.94 1715.63 2597.5 1694C2616.7 1678.99 2638.37 1670.16 2662.5 1667.5Z" fill="#1E120D"></path>
<path fill-rule="evenodd" clip-rule="evenodd" d="M3081.5 1667.5C3153.17 1667.33 3224.83 1667.5 3296.5 1668C3320.91 1671.08 3335.74 1684.58 3341 1708.5C3343.94 1725.53 3342.61 1742.2 3337 1758.5C3327.73 1775.74 3313.23 1784.9 3293.5 1786C3244.13 1786.03 3194.8 1786.69 3145.5 1788C3121.58 1793.29 3107.75 1808.12 3104 1832.5C3103.67 2103.5 3103.33 2374.5 3103 2645.5C3099.28 2667.55 3086.45 2680.72 3064.5 2685C3050.17 2685.67 3035.83 2685.67 3021.5 2685C3000.69 2679.85 2988.52 2666.69 2985 2645.5C2984.38 2353.83 2984.05 2062.17 2984 1770.5C2989.03 1709.98 3021.53 1675.64 3081.5 1667.5Z" fill="#1E120D"></path>
<path fill-rule="evenodd" clip-rule="evenodd" d="M749.5 1668.5C841.705 1689.89 933.705 1711.55 1025.5 1733.5C1023.48 1740.78 1021.64 1748.11 1020 1755.5C1019.61 1756.43 1018.95 1757.09 1018 1757.5C926.968 1736.13 835.801 1715.47 744.5 1695.5C746.037 1686.48 747.704 1677.48 749.5 1668.5Z" fill="#020302"></path>
<path fill-rule="evenodd" clip-rule="evenodd" d="M2863.5 1727.5C2803.83 1727.5 2744.17 1727.5 2684.5 1727.5C2684.5 1747.17 2684.5 1766.83 2684.5 1786.5C2683.5 1766.67 2683.17 1746.67 2683.5 1726.5C2743.67 1726.17 2803.67 1726.5 2863.5 1727.5Z" fill="#8D8684"></path>
<path fill-rule="evenodd" clip-rule="evenodd" d="M2863.5 1727.5C2863.5 1747.17 2863.5 1766.83 2863.5 1786.5C2803.83 1786.5 2744.17 1786.5 2684.5 1786.5C2684.5 1766.83 2684.5 1747.17 2684.5 1727.5C2744.17 1727.5 2803.83 1727.5 2863.5 1727.5Z" fill="#FEFEFE"></path>
<path fill-rule="evenodd" clip-rule="evenodd" d="M2087.5 2612.5C2087.42 2615.27 2087.92 2617.94 2089 2620.5C2089.5 2538.5 2089.67 2456.5 2089.5 2374.5C2093.39 2311.45 2126.72 2276.61 2189.5 2270C2259.83 2269.33 2330.17 2269.33 2400.5 2270C2426.2 2273.04 2441.7 2287.2 2447 2312.5C2447.67 2322.17 2447.67 2331.83 2447 2341.5C2442.69 2371.62 2425.19 2387.45 2394.5 2389C2346.83 2389.33 2299.17 2389.67 2251.5 2390C2227.1 2395.06 2212.94 2409.9 2209 2434.5C2208.67 2503.83 2208.33 2573.17 2208 2642.5C2203.93 2667.57 2189.43 2682.4 2164.5 2687C2153.83 2687.67 2143.17 2687.67 2132.5 2687C2103.7 2680.51 2089.2 2662.35 2089 2632.5C2088.74 2662.75 2073.9 2680.91 2044.5 2687C1991.83 2687.67 1939.17 2687.67 1886.5 2687C1829.31 2680.48 1797.48 2648.64 1791 2591.5C1789.53 2523.86 1789.03 2456.19 1789.5 2388.5C1764.83 2388.67 1740.16 2388.5 1715.5 2388C1692.88 2385.05 1678.71 2372.55 1673 2350.5C1669.01 2332.53 1670.01 2314.87 1676 2297.5C1685.35 2280.4 1699.85 2271.23 1719.5 2270C1742.83 2269.5 1766.16 2269.33 1789.5 2269.5C1789.33 2245.83 1789.5 2222.16 1790 2198.5C1795.13 2165.58 1814.46 2149.24 1848 2149.5C1863.37 2149.22 1877.53 2153.05 1890.5 2161C1900.98 2170.13 1907.15 2181.63 1909 2195.5C1909.5 2220.16 1909.67 2244.83 1909.5 2269.5C1933.5 2269.33 1957.5 2269.5 1981.5 2270C2014.16 2275.34 2030.16 2294.68 2029.5 2328C2029.93 2342.88 2026.43 2356.72 2019 2369.5C2008.93 2381.31 1996.1 2387.81 1980.5 2389C1956.84 2389.5 1933.17 2389.67 1909.5 2389.5C1909.33 2433.5 1909.5 2477.5 1910 2521.5C1913.48 2548.98 1928.98 2564.48 1956.5 2568C1984.83 2568.33 2013.17 2568.67 2041.5 2569C2067.77 2572.11 2083.1 2586.61 2087.5 2612.5Z" fill="#1E120D"></path>
<path fill-rule="evenodd" clip-rule="evenodd" d="M396.5 2269.5C465.834 2269.33 535.167 2269.5 604.5 2270C631.184 2272.69 647.018 2287.19 652 2313.5C654.801 2332.07 652.134 2349.74 644 2366.5C632.848 2380.99 618.015 2388.49 599.5 2389C550.463 2389.02 501.463 2389.69 452.5 2391C429.207 2397.71 416.374 2413.21 414 2437.5C413.333 2466.17 413.333 2494.83 414 2523.5C418.393 2549.89 433.893 2564.73 460.5 2568C509.167 2568.33 557.833 2568.67 606.5 2569C633.983 2573.15 649.149 2588.98 652 2616.5C654.102 2632.88 651.769 2648.55 645 2663.5C636.586 2676.97 624.42 2684.8 608.5 2687C535.5 2687.67 462.5 2687.67 389.5 2687C329.354 2678.85 297.52 2644.35 294 2583.5C293.333 2513.17 293.333 2442.83 294 2372.5C299.69 2309.64 333.857 2275.31 396.5 2269.5Z" fill="#1E120D"></path>
<path fill-rule="evenodd" clip-rule="evenodd" d="M813.501 2269.5C884.502 2269.33 955.502 2269.5 1026.5 2270C1090.9 2274.73 1125.73 2309.23 1131 2373.5C1131.67 2443.5 1131.67 2513.5 1131 2583.5C1127.36 2644.8 1095.2 2679.3 1034.5 2687C959.168 2687.67 883.834 2687.67 808.501 2687C748.604 2679.1 717.104 2644.93 714.001 2584.5C713.31 2513.83 712.977 2443.17 713.001 2372.5C718.417 2310.59 751.917 2276.25 813.501 2269.5Z" fill="#1E120D"></path>
<path fill-rule="evenodd" clip-rule="evenodd" d="M1293.5 2269.5C1367.85 2269.04 1442.18 2269.54 1516.5 2271C1574.66 2279.76 1605.49 2313.59 1609 2372.5C1609.67 2461.5 1609.67 2550.5 1609 2639.5C1606.34 2666.16 1591.84 2682 1565.5 2687C1552.06 2688.11 1538.72 2687.44 1525.5 2685C1503.19 2676.67 1491.69 2660.5 1491 2636.5C1490.97 2568.48 1490.31 2500.48 1489 2432.5C1484.19 2407.84 1469.36 2393.68 1444.5 2390C1414.5 2389.33 1384.5 2389.33 1354.5 2390C1328.64 2394.86 1314.14 2410.36 1311 2436.5C1310.67 2504.5 1310.33 2572.5 1310 2640.5C1307.34 2668.16 1292.17 2683.66 1264.5 2687C1251.73 2688.02 1239.06 2687.36 1226.5 2685C1205.28 2677.75 1193.78 2662.92 1192 2640.5C1191.33 2549.17 1191.33 2457.83 1192 2366.5C1199.66 2306.67 1233.5 2274.33 1293.5 2269.5Z" fill="#1E120D"></path>
<path fill-rule="evenodd" clip-rule="evenodd" d="M2608.5 2269.5C2679.5 2269.33 2750.5 2269.5 2821.5 2270C2883.26 2273.76 2917.76 2306.26 2925 2367.5C2925.67 2440.17 2925.67 2512.83 2925 2585.5C2921.03 2646.81 2888.53 2680.64 2827.5 2687C2753.17 2687.67 2678.83 2687.67 2604.5 2687C2543.76 2679.26 2511.6 2644.76 2508 2583.5C2507.33 2512.83 2507.33 2442.17 2508 2371.5C2513.19 2309.47 2546.69 2275.47 2608.5 2269.5Z" fill="#1E120D"></path>
<path fill-rule="evenodd" clip-rule="evenodd" d="M2089.5 2374.5C2089.67 2456.5 2089.5 2538.5 2089 2620.5C2087.92 2617.94 2087.42 2615.27 2087.5 2612.5C2088.17 2533.17 2088.83 2453.83 2089.5 2374.5Z" fill="#6B625F"></path>
<path fill-rule="evenodd" clip-rule="evenodd" d="M876.5 2389.5C908.532 2389.05 940.532 2389.55 972.5 2391C994.194 2396.03 1007.03 2409.53 1011 2431.5C1011.67 2460.83 1011.67 2490.17 1011 2519.5C1008.35 2548.49 992.513 2564.65 963.5 2568C935.5 2568.67 907.5 2568.67 879.5 2568C851.744 2563.58 836.244 2547.41 833 2519.5C832.039 2489.13 832.373 2458.79 834 2428.5C840.097 2406.56 854.264 2393.56 876.5 2389.5Z" fill="#FEFEFE"></path>
<path fill-rule="evenodd" clip-rule="evenodd" d="M2670.5 2389.5C2701.17 2389.33 2731.84 2389.5 2762.5 2390C2787.01 2394.51 2801.51 2409.01 2806 2433.5C2806.67 2462.5 2806.67 2491.5 2806 2520.5C2802.23 2550.81 2785.06 2566.64 2754.5 2568C2727.83 2568.67 2701.17 2568.67 2674.5 2568C2644.84 2563.67 2629 2546.5 2627 2516.5C2626.33 2490.83 2626.33 2465.17 2627 2439.5C2629.69 2412.32 2644.19 2395.66 2670.5 2389.5Z" fill="#FEFEFE"></path>
<path fill-rule="evenodd" clip-rule="evenodd" d="M257.5 2767.5C1293.5 2767.5 2329.5 2767.5 3365.5 2767.5C3340.36 2837.46 3310.52 2905.46 3276 2971.5C3126.57 3251.26 2915.41 3472.09 2642.5 3634C2322.72 3817.34 1979.38 3888.34 1612.5 3847C1252.56 3799.74 940.89 3653.07 677.5 3407C487.861 3227.01 347.861 3013.85 257.5 2767.5Z" fill="#0061A6"></path>
<path fill-rule="evenodd" clip-rule="evenodd" d="M1640.5 3096.5C1655.44 3095.17 1669.44 3098 1682.5 3105C1692.09 3113.67 1697.25 3124.51 1698 3137.5C1698.98 3253.19 1698.65 3368.86 1697 3484.5C1694.13 3501.04 1684.63 3511.54 1668.5 3516C1656.82 3517.95 1645.15 3517.95 1633.5 3516C1614.94 3510.08 1605.44 3497.24 1605 3477.5C1604.33 3362.83 1604.33 3248.17 1605 3133.5C1607.87 3112.46 1619.71 3100.13 1640.5 3096.5Z" fill="#FDFEFE"></path>
<path fill-rule="evenodd" clip-rule="evenodd" d="M1780.5 3096.5C1794.86 3095.43 1808.53 3097.93 1821.5 3104C1831 3111.48 1836.5 3121.32 1838 3133.5C1838.67 3249.5 1838.67 3365.5 1838 3481.5C1832.64 3508.05 1816.3 3520.05 1789 3517.5C1763.67 3517.84 1749.01 3505.51 1745 3480.5C1744.33 3364.17 1744.33 3247.83 1745 3131.5C1748.77 3111.56 1760.61 3099.89 1780.5 3096.5Z" fill="#FDFEFE"></path>
<path fill-rule="evenodd" clip-rule="evenodd" d="M1978.5 3198.5C1978.5 3211.5 1978.5 3224.5 1978.5 3237.5C2013.5 3237.5 2048.5 3237.5 2083.5 3237.5C2130.84 3240.01 2158.01 3264.68 2165 3311.5C2165.67 3353.17 2165.67 3394.83 2165 3436.5C2161.64 3486.19 2135.14 3513.02 2085.5 3517C2029.83 3517.67 1974.17 3517.67 1918.5 3517C1898.81 3512.82 1887.98 3500.66 1886 3480.5C1884.32 3467.66 1885.99 3455.33 1891 3443.5C1897.49 3433.5 1906.65 3427.33 1918.5 3425C1956.5 3424.67 1994.5 3424.33 2032.5 3424C2052.9 3422.59 2065.73 3412.09 2071 3392.5C2073.98 3378.05 2072.65 3364.05 2067 3350.5C2059.69 3339.09 2049.19 3332.59 2035.5 3331C1995.14 3330.95 1954.81 3330.29 1914.5 3329C1897.33 3323.48 1887.83 3311.65 1886 3293.5C1885.5 3227.83 1885.33 3162.17 1885.5 3096.5C1978.83 3096.5 2072.17 3096.5 2165.5 3096.5C2165.5 3127.83 2165.5 3159.17 2165.5 3190.5C2103.17 3190.5 2040.83 3190.5 1978.5 3190.5C1978.5 3193.17 1978.5 3195.83 1978.5 3198.5Z" fill="#FEFEFE"></path>
<path fill-rule="evenodd" clip-rule="evenodd" d="M2290.5 3096.5C2360.17 3096.33 2429.83 3096.5 2499.5 3097C2526.57 3099.11 2540.23 3113.78 2540.5 3141C2541.03 3154.4 2537.53 3166.57 2530 3177.5C2522.56 3184.47 2513.72 3188.64 2503.5 3190C2447.5 3190.33 2391.5 3190.67 2335.5 3191C2328.03 3191.95 2321.03 3194.28 2314.5 3198C2306.09 3205.03 2304.26 3213.53 2309 3223.5C2317.86 3232.5 2328.69 3237 2341.5 3237C2382.83 3237.33 2424.17 3237.67 2465.5 3238C2510.61 3243.78 2535.44 3269.28 2540 3314.5C2540.67 3350.17 2540.67 3385.83 2540 3421.5C2539.71 3445.03 2533.37 3466.69 2521 3486.5C2506.34 3504.08 2487.51 3514.25 2464.5 3517C2405.17 3517.67 2345.83 3517.67 2286.5 3517C2240.62 3510.45 2216.12 3483.95 2213 3437.5C2212.33 3350.17 2212.33 3262.83 2213 3175.5C2217.86 3128.47 2243.7 3102.14 2290.5 3096.5Z" fill="#FEFEFE"></path>
<path fill-rule="evenodd" clip-rule="evenodd" d="M1237.5 3143.5C1237.5 3156.5 1237.5 3169.5 1237.5 3182.5C1274.5 3182.5 1311.5 3182.5 1348.5 3182.5C1348.5 3168.5 1348.5 3154.5 1348.5 3140.5C1348.55 3128.02 1352.05 3116.69 1359 3106.5C1371.24 3096.6 1384.74 3094.77 1399.5 3101C1407.69 3105.88 1412.86 3113.05 1415 3122.5C1416.25 3128.45 1417.09 3134.45 1417.5 3140.5C1417.5 3154.5 1417.5 3168.5 1417.5 3182.5C1431.17 3182.5 1444.83 3182.5 1458.5 3182.5C1471.1 3182.45 1482.76 3185.62 1493.5 3192C1502.7 3200.95 1505.87 3211.78 1503 3224.5C1500.08 3238.39 1491.58 3246.56 1477.5 3249C1470.58 3250.54 1463.58 3251.54 1456.5 3252C1443.5 3252.5 1430.5 3252.67 1417.5 3252.5C1417.5 3289.17 1417.5 3325.83 1417.5 3362.5C1432.84 3362.33 1448.17 3362.5 1463.5 3363C1498.15 3365.29 1509.98 3382.79 1499 3415.5C1495.43 3420.88 1490.6 3424.71 1484.5 3427C1477.63 3429.18 1470.63 3430.84 1463.5 3432C1448.5 3432.5 1433.5 3432.67 1418.5 3432.5C1419.05 3451.57 1418.22 3470.57 1416 3489.5C1410.87 3511.5 1397.04 3520.66 1374.5 3517C1364.12 3514.06 1356.95 3507.56 1353 3497.5C1351.29 3491.93 1349.95 3486.26 1349 3480.5C1348.5 3464.5 1348.33 3448.5 1348.5 3432.5C1311.83 3432.5 1275.17 3432.5 1238.5 3432.5C1238.67 3446.5 1238.5 3460.5 1238 3474.5C1237.65 3485.94 1234.65 3496.6 1229 3506.5C1219.46 3516.1 1207.96 3519.6 1194.5 3517C1181.33 3513.52 1173.49 3505.02 1171 3491.5C1167.87 3471.97 1166.7 3452.3 1167.5 3432.5C1151.83 3432.67 1136.16 3432.5 1120.5 3432C1087.27 3427.7 1076.43 3409.86 1088 3378.5C1096.35 3369.24 1106.85 3364.08 1119.5 3363C1135.5 3362.5 1151.5 3362.33 1167.5 3362.5C1167.5 3325.83 1167.5 3289.17 1167.5 3252.5C1152.5 3252.67 1137.5 3252.5 1122.5 3252C1109.6 3251.59 1098.44 3247.09 1089 3238.5C1080.77 3225.03 1080.44 3211.36 1088 3197.5C1097.12 3188.09 1108.29 3183.25 1121.5 3183C1136.83 3182.5 1152.16 3182.33 1167.5 3182.5C1167.33 3167.5 1167.5 3152.5 1168 3137.5C1171.36 3102.09 1189.53 3090.59 1222.5 3103C1231.14 3110.91 1235.98 3120.74 1237 3132.5C1237.5 3136.15 1237.67 3139.82 1237.5 3143.5Z" fill="#FDFEFE"></path>
<path fill-rule="evenodd" clip-rule="evenodd" d="M1348.5 3140.5C1348.5 3154.5 1348.5 3168.5 1348.5 3182.5C1311.5 3182.5 1274.5 3182.5 1237.5 3182.5C1237.5 3169.5 1237.5 3156.5 1237.5 3143.5C1238.5 3155.99 1238.83 3168.66 1238.5 3181.5C1274.83 3181.5 1311.17 3181.5 1347.5 3181.5C1347.17 3167.66 1347.5 3153.99 1348.5 3140.5Z" fill="#2A8DBE"></path>
<path fill-rule="evenodd" clip-rule="evenodd" d="M1417.5 3140.5C1418.5 3153.99 1418.83 3167.66 1418.5 3181.5C1432.01 3181.17 1445.34 3181.5 1458.5 3182.5C1444.83 3182.5 1431.17 3182.5 1417.5 3182.5C1417.5 3168.5 1417.5 3154.5 1417.5 3140.5Z" fill="#62AFD2"></path>
<path fill-rule="evenodd" clip-rule="evenodd" d="M1978.5 3198.5C1979.5 3210.99 1979.83 3223.66 1979.5 3236.5C2014.34 3236.17 2049 3236.5 2083.5 3237.5C2048.5 3237.5 2013.5 3237.5 1978.5 3237.5C1978.5 3224.5 1978.5 3211.5 1978.5 3198.5Z" fill="#409FC9"></path>
<path fill-rule="evenodd" clip-rule="evenodd" d="M1238.5 3252.5C1275.17 3252.5 1311.83 3252.5 1348.5 3252.5C1348.5 3289.17 1348.5 3325.83 1348.5 3362.5C1311.83 3362.5 1275.17 3362.5 1238.5 3362.5C1238.5 3325.83 1238.5 3289.17 1238.5 3252.5Z" fill="#0060A6"></path>
<path fill-rule="evenodd" clip-rule="evenodd" d="M2342.5 3330.5C2364.5 3330.33 2386.5 3330.5 2408.5 3331C2428.78 3332.96 2441.28 3343.79 2446 3363.5C2446.67 3372.5 2446.67 3381.5 2446 3390.5C2442.74 3410.1 2431.24 3421.26 2411.5 3424C2388.17 3424.67 2364.83 3424.67 2341.5 3424C2324.85 3421.68 2314.02 3412.52 2309 3396.5C2304.58 3379.95 2305.92 3363.95 2313 3348.5C2320.31 3338.27 2330.14 3332.27 2342.5 3330.5Z" fill="#0161A6"></path>
</g>
<defs>
<clipPath id="SvgjsClipPath1000">
<rect width="3624" height="4018" fill="white"></rect>
</clipPath>
</defs>
</svg><style>@media (prefers-color-scheme: light) { :root { filter: none; } }
@media (prefers-color-scheme: dark) { :root { filter: none; } }
</style></svg>